<?xml version="1.0" encoding="utf-8"?>
<!-- Generator: Adobe Illustrator 22.0.1, SVG Export Plug-In . SVG Version: 6.00 Build 0)  -->
<svg version="1.1" id="Слой_1" xmlns="http://www.w3.org/2000/svg" xmlns:xlink="http://www.w3.org/1999/xlink" x="0px" y="0px"
	 viewBox="0 0 15.4 15.4" style="enable-background:new 0 0 15.4 15.4;" xml:space="preserve">
		<path d="M-19.8-20.3"/>
	<path class="st0" d="M-19.8,614.8"/>

		<path d="M14.4,8.7H1c-0.6,0-1-0.4-1-1s0.4-1,1-1h13.4c0.6,0,1,0.4,1,1S15,8.7,14.4,8.7z"/>

		<path d="M7.7,15.4c-0.3,0-0.5-0.1-0.7-0.3L0.3,8.4c-0.4-0.4-0.4-1,0-1.4L7,0.3c0.4-0.4,1-0.4,1.4,0s0.4,1,0,1.4l-6,6
			l6,6c0.4,0.4,0.4,1,0,1.4C8.2,15.3,8,15.4,7.7,15.4z"/>
</svg>
