<?xml version="1.0" encoding="utf-8"?>
<!-- Generator: Adobe Illustrator 22.0.1, SVG Export Plug-In . SVG Version: 6.00 Build 0)  -->
<svg version="1.1" id="Слой_1" xmlns="http://www.w3.org/2000/svg" xmlns:xlink="http://www.w3.org/1999/xlink" x="0px" y="0px"
	 viewBox="0 0 11 11" style="enable-background:new 0 0 11 11;" xml:space="preserve">
		<path d="M1,11c-0.3,0-0.5-0.1-0.7-0.3c-0.4-0.4-0.4-1,0-1.4l9-9c0.4-0.4,1-0.4,1.4,0s0.4,1,0,1.4l-9,9
			C1.5,10.9,1.3,11,1,11z"/>
		<path d="M10,9.4c-0.6,0-1-0.4-1-1V2H2.6c-0.6,0-1-0.4-1-1s0.4-1,1-1H10c0.6,0,1,0.4,1,1v7.4C11,9,10.6,9.4,10,9.4z"/>

</svg>
