<?xml version="1.0" encoding="utf-8"?>
<!-- Generator: Adobe Illustrator 22.0.1, SVG Export Plug-In . SVG Version: 6.00 Build 0)  -->
<svg version="1.1" id="Слой_1" xmlns="http://www.w3.org/2000/svg" xmlns:xlink="http://www.w3.org/1999/xlink" x="0px" y="0px"
	 viewBox="0 0 15.4 15.4" style="enable-background:new 0 0 15.4 15.4;" xml:space="preserve">
<style type="text/css">
	.st0{fill:#0078FF;}
</style>
<title>Ресурс 8</title>
				<path d="M7.7,15.4c-0.6,0-1-0.4-1-1V1c0-0.6,0.4-1,1-1s1,0.4,1,1v13.4C8.7,15,8.3,15.4,7.7,15.4z"/>

				<path d="M14.4,8.7c-0.3,0-0.5-0.1-0.7-0.3l-6-6l-6,6c-0.4,0.4-1,0.4-1.4,0s-0.4-1,0-1.4L7,0.3c0.4-0.4,1-0.4,1.4,0
					L15.1,7c0.4,0.4,0.4,1,0,1.4C14.9,8.6,14.7,8.7,14.4,8.7z"/>

</svg>
