<?xml version="1.0" encoding="utf-8"?>
<!-- Generator: Adobe Illustrator 22.0.1, SVG Export Plug-In . SVG Version: 6.00 Build 0)  -->
<svg version="1.1" id="Слой_1" xmlns="http://www.w3.org/2000/svg" xmlns:xlink="http://www.w3.org/1999/xlink" x="0px" y="0px"
	 viewBox="0 0 8.6 9" style="enable-background:new 0 0 8.6 9;" xml:space="preserve">
<path d="M8.1,3.7H7.3V3c0-1.7-1.3-3-3-3s-3,1.3-3,3v0.7H0.5C0.2,3.7,0,3.9,0,4.2v4.3C0,8.8,0.2,9,0.5,9h7.6
	c0.3,0,0.5-0.2,0.5-0.5V4.2C8.6,3.9,8.4,3.7,8.1,3.7z M4.3,7.4c-0.6,0-1-0.5-1-1c0-0.6,0.5-1,1-1s1,0.5,1,1C5.3,6.9,4.9,7.4,4.3,7.4
	z M5.9,3.7H2.7V3c0-0.9,0.7-1.6,1.6-1.6S5.9,2.1,5.9,3V3.7z"/>
</svg>
