<svg xmlns="http://www.w3.org/2000/svg" width="8.6" height="9" viewBox="0 0 8.6 9">
  <defs>
    <style>
      .a8b78e49-2d49-4054-9cfd-b57d04b640a9 {
        fill: #fff;
      }
    </style>
  </defs>
  <title>Ресурс 2</title>
  <g id="9d6ae0ee-ccf1-471e-80a1-40834b61c34c" data-name="Слой 2">
    <g id="63d905bb-56f4-440e-8255-5506ce671a70" data-name="Слой 1">
      <path class="a8b78e49-2d49-4054-9cfd-b57d04b640a9" d="M8.08,3.68H7.31V3a3,3,0,0,0-6,0v.67H.52A.52.52,0,0,0,0,4.2V8.48A.52.52,0,0,0,.52,9H8.08a.52.52,0,0,0,.52-.52V4.2A.52.52,0,0,0,8.08,3.68ZM4.3,7.38a1,1,0,1,1,1-1A1,1,0,0,1,4.3,7.38Zm1.62-3.7H2.67V3A1.63,1.63,0,1,1,5.92,3Z"/>
    </g>
  </g>
</svg>
