<?xml version="1.0" encoding="utf-8"?>
<!-- Generator: Adobe Illustrator 22.0.1, SVG Export Plug-In . SVG Version: 6.00 Build 0)  -->
<svg version="1.1" id="Слой_1" xmlns="http://www.w3.org/2000/svg" xmlns:xlink="http://www.w3.org/1999/xlink" x="0px" y="0px"
	 viewBox="0 0 9 11.1" style="enable-background:new 0 0 9 11.1;" xml:space="preserve">
<style type="text/css">
	.st0{fill:#8E8E8E;}
</style>
<path class="st0" d="M-4689-2831.4c0,0,0-0.1,0-0.1c0-2.5-2-4.5-4.5-4.5c-2.3,0-4.2,1.7-4.4,4c0,0,0,0.1,0,0.1c0,0.1,0,0.3,0,0.4
	c0,0,0,0.1,0,0.1c0,0,0,0.1,0,0.1c0,4.1,4.1,6.4,4.1,6.4c0.2,0.1,0.6,0.1,0.8,0C-4693.1-2825-4689-2827.2-4689-2831.4
	C-4689-2831.4-4689-2831.4-4689-2831.4z M-4693.5-2829.3c-1.1,0-2-0.9-2-2s0.9-2,2-2c1.1,0,2,0.9,2,2S-4692.4-2829.3-4693.5-2829.3z
	"/>
<path class="st0" d="M9,4.6c0,0,0-0.1,0-0.1C9,2,7,0,4.5,0C2.2,0,0.3,1.7,0.1,4C0,4,0,4,0,4.1c0,0.1,0,0.3,0,0.4c0,0,0,0.1,0,0.1
	c0,0,0,0.1,0,0.1C0,8.8,4.1,11,4.1,11c0.2,0.1,0.6,0.1,0.8,0C4.9,11,9,8.8,9,4.6C9,4.6,9,4.6,9,4.6z M4.5,6.7c-1.1,0-2-0.9-2-2
	s0.9-2,2-2s2,0.9,2,2S5.6,6.7,4.5,6.7z"/>
</svg>
