<?xml version="1.0" encoding="utf-8"?>
<!-- Generator: Adobe Illustrator 22.0.1, SVG Export Plug-In . SVG Version: 6.00 Build 0)  -->
<svg version="1.1" id="Слой_1" xmlns="http://www.w3.org/2000/svg" xmlns:xlink="http://www.w3.org/1999/xlink" x="0px" y="0px"
	 viewBox="0 0 20 20" style="enable-background:new 0 0 20 20;" xml:space="preserve">
<style type="text/css">
	.st0{fill:#0078FF;}
	.st1{fill:#FFFFFF;}
</style>
	<path class="st0" d="M10,0C4.5,0,0,4.5,0,10c0,2.5,0.9,4.8,2.5,6.6l0,0L1.1,20l5.6-0.6l0,0c1,0.4,2.1,0.6,3.3,0.6
		c5.5,0,10-4.5,10-10S15.5,0,10,0z M6.4,8.9C7,8.9,7.5,9.4,7.5,10S7,11.1,6.4,11.1S5.3,10.6,5.3,10S5.8,8.9,6.4,8.9z M10,8.9c0.6,0,1.1,0.5,1.1,1.1s-0.5,1.1-1.1,1.1S8.9,10.6,8.9,10S9.4,8.9,10,8.9z M13.6,8.9c0.6,0,1.1,0.5,1.1,1.1s-0.5,1.1-1.1,1.1s-1.1-0.5-1.1-1.1S13,8.9,13.6,8.9z"/>

</svg>
