<?xml version="1.0" encoding="utf-8"?>
<!-- Generator: Adobe Illustrator 22.0.1, SVG Export Plug-In . SVG Version: 6.00 Build 0)  -->
<svg version="1.1" id="Слой_1" xmlns="http://www.w3.org/2000/svg" xmlns:xlink="http://www.w3.org/1999/xlink" x="0px" y="0px"
	 viewBox="0 0 16.4 16" style="enable-background:new 0 0 16.4 16;" xml:space="preserve">
			<path d="M6.9,13.8C3.1,13.8,0,10.7,0,6.9C0,3.1,3.1,0,6.9,0c3.8,0,6.9,3.1,6.9,6.9C13.8,10.7,10.7,13.8,6.9,13.8z
				 M6.9,2C4.2,2,2,4.2,2,6.9s2.2,4.9,4.9,4.9s4.9-2.2,4.9-4.9S9.6,2,6.9,2z"/>
			<path d="M15.4,16c-0.2,0-0.5-0.1-0.7-0.3l-4.2-4c-0.4-0.4-0.4-1,0-1.4c0.4-0.4,1-0.4,1.4,0l4.2,4
				c0.4,0.4,0.4,1,0,1.4C15.9,15.9,15.7,16,15.4,16z"/>
</svg>
