<?xml version="1.0" encoding="utf-8"?>
<!-- Generator: Adobe Illustrator 22.0.1, SVG Export Plug-In . SVG Version: 6.00 Build 0)  -->
<svg version="1.1" id="Слой_1" xmlns="http://www.w3.org/2000/svg" xmlns:xlink="http://www.w3.org/1999/xlink" x="0px" y="0px"
	 viewBox="0 0 17 13.7" style="enable-background:new 0 0 17 13.7;" xml:space="preserve">
<style type="text/css">
	.st0{fill:#8E8E8E;}
</style>
<g>
	<g>
		<path class="st0" d="M16.8,6.5l-7-6.3C9.7,0,9.5,0,9.3,0C9.1,0.1,9,0.3,9,0.5v3.4c-1.7,0.2-7.5,1.2-9,7.8c0,0.2,0,0.4,0.2,0.5
			s0.4,0.1,0.6,0C3.9,10.1,7.6,10,9,10v3.2c0,0.2,0.1,0.4,0.3,0.5c0.1,0,0.1,0,0.2,0c0.1,0,0.2,0,0.3-0.1l7-6.3
			C16.9,7.1,17,7,17,6.8C17,6.7,16.9,6.6,16.8,6.5z"/>
	</g>
</g>
</svg>
