<?xml version="1.0" encoding="utf-8"?>
<!-- Generator: Adobe Illustrator 22.0.1, SVG Export Plug-In . SVG Version: 6.00 Build 0)  -->
<svg version="1.1" id="Слой_1" xmlns="http://www.w3.org/2000/svg" xmlns:xlink="http://www.w3.org/1999/xlink" x="0px" y="0px"
	 viewBox="0 0 11.5 16.9" style="enable-background:new 0 0 11.5 16.9;" xml:space="preserve">
				<path d="M10.8,16.9c-0.2,0-0.4-0.1-0.5-0.2l-4.5-4.2l-4.5,4.2c-0.2,0.2-0.5,0.3-0.8,0.1C0.2,16.7,0,16.4,0,16.1V2.4
					C0,1.1,1.1,0,2.4,0h6.7c1.3,0,2.4,1.1,2.4,2.4v13.7c0,0.3-0.2,0.6-0.5,0.7C11,16.9,10.9,16.9,10.8,16.9z M5.8,10.7
					c0.2,0,0.4,0.1,0.5,0.2l3.7,3.5v-12c0-0.5-0.4-0.9-0.9-0.9H2.4c-0.5,0-0.9,0.4-0.9,0.9v12l3.7-3.5C5.4,10.7,5.6,10.7,5.8,10.7z"
					/>

</svg>
