<?xml version="1.0" encoding="utf-8"?>
<!-- Generator: Adobe Illustrator 22.0.1, SVG Export Plug-In . SVG Version: 6.00 Build 0)  -->
<svg version="1.1" id="Слой_1" xmlns="http://www.w3.org/2000/svg" xmlns:xlink="http://www.w3.org/1999/xlink" x="0px" y="0px"
	 viewBox="0 0 14.9 3.5" style="enable-background:new 0 0 14.9 3.5;" xml:space="preserve">
	<path d="M1.8,0c1,0,1.8,0.8,1.8,1.8S2.8,3.6,1.8,3.6S0,2.8,0,1.8S0.8,0,1.8,0z"/>
	<path d="M7.4,0c1,0,1.8,0.8,1.8,1.8S8.4,3.6,7.4,3.6S5.6,2.8,5.6,1.8S6.4,0,7.4,0z"/>
	<path d="M13.1,0c1,0,1.8,0.8,1.8,1.8s-0.8,1.8-1.8,1.8s-1.8-0.8-1.8-1.8S12.1,0,13.1,0z"/>

</svg>
