<svg xmlns="http://www.w3.org/2000/svg" width="20.92" height="17" viewBox="0 0 20.92 17">
  <defs>
    <style>
      .\39 62db383-e39c-4398-953c-76f4b0471a22 {
        fill: #fff;
      }
    </style>
  </defs>
  <title>Twitter</title>
  <g id="e6d951e8-050e-45b9-b05e-16efc23c2bc3" data-name="Слой 2">
    <g id="2c8a6193-05f9-4bf3-91e8-4d0fe9a01eb4" data-name="Слой 1">
      <path class="962db383-e39c-4398-953c-76f4b0471a22" d="M6.58,17A12.13,12.13,0,0,0,18.79,4.79c0-.19,0-.37,0-.56A8.68,8.68,0,0,0,20.92,2a8.73,8.73,0,0,1-2.46.68A4.32,4.32,0,0,0,20.34.31a8.57,8.57,0,0,1-2.72,1A4.3,4.3,0,0,0,10.3,5.27,12.21,12.21,0,0,1,1.46.78,4.29,4.29,0,0,0,2.79,6.51,4.24,4.24,0,0,1,.84,6V6a4.3,4.3,0,0,0,3.44,4.21,4.24,4.24,0,0,1-1.94.07,4.29,4.29,0,0,0,4,3A8.51,8.51,0,0,1,1,15.13a8.72,8.72,0,0,1-1-.06A12.18,12.18,0,0,0,6.58,17"/>
    </g>
  </g>
</svg>
