<svg xmlns="http://www.w3.org/2000/svg" width="24.54" height="14" viewBox="0 0 24.54 14">
  <defs>
    <style>
      .\33 a0e89c5-8adf-4bb4-9fcb-b40ffd8fac6e {
        fill: #fff;
      }
    </style>
  </defs>
  <title>Ресурс 3</title>
  <g id="77a7ffa7-1f81-4baf-8365-93c4e0c96596" data-name="Слой 2">
    <g id="6985700c-69ff-4f66-9ff4-a8b22e007504" data-name="Слой 1">
      <path class="3a0e89c5-8adf-4bb4-9fcb-b40ffd8fac6e" d="M12,13.94h1.46a1.24,1.24,0,0,0,.67-.29,1.08,1.08,0,0,0,.2-.65s0-2,.89-2.25,2.06,1.9,3.28,2.74a2.32,2.32,0,0,0,1.63.5l3.28-.05s1.71-.1.9-1.45a10.89,10.89,0,0,0-2.44-2.82c-2.05-1.91-1.77-1.6.7-4.9,1.51-2,2.11-3.24,1.92-3.76S23.21.64,23.21.64l-3.69,0a.86.86,0,0,0-.47.09,1.05,1.05,0,0,0-.33.39A20.82,20.82,0,0,1,17.36,4C15.72,6.81,15.06,7,14.79,6.79c-.62-.41-.47-1.63-.47-2.49,0-2.71.41-3.83-.8-4.13A6.56,6.56,0,0,0,11.8,0,8,8,0,0,0,8.74.32C8.32.52,8,1,8.19,1a1.65,1.65,0,0,1,1.09.54,3.58,3.58,0,0,1,.37,1.67s.21,3.19-.51,3.58C8.64,7.07,8,6.52,6.49,4A23.2,23.2,0,0,1,5.18,1.26,1.06,1.06,0,0,0,4.87.85,1.38,1.38,0,0,0,4.31.62L.8.64S.27.66.08.88s0,.63,0,.63,2.74,6.42,5.85,9.66A8.4,8.4,0,0,0,12,13.94"/>
    </g>
  </g>
</svg>
