<?xml version="1.0" encoding="UTF-8"?><!DOCTYPE svg PUBLIC "-//W3C//DTD SVG 1.1//EN" "http://www.w3.org/Graphics/SVG/1.1/DTD/svg11.dtd"><svg xmlns="http://www.w3.org/2000/svg"><symbol id="icon-arrow-left" viewBox="0 0 15.4 15.4">
    <path d="M14.4 8.7H1c-.6 0-1-.4-1-1s.4-1 1-1h13.4c.6 0 1 .4 1 1s-.4 1-1 1z"/>
    <path d="M7.7 15.4c-.3 0-.5-.1-.7-.3L.3 8.4C-.1 8-.1 7.4.3 7L7 .3c.4-.4 1-.4 1.4 0s.4 1 0 1.4l-6 6 6 6c.4.4.4 1 0 1.4-.2.2-.4.3-.7.3z"/>
</symbol><symbol id="icon-arrow-location" viewBox="0 0 14.1 14">
    <path d="M14.1 0L7.5 14 7 7l-7-.4L14.1 0z"/>
</symbol><symbol id="icon-arrow-right" viewBox="0 0 15.4 15.4">
    <path d="M14.4 8.7H1c-.6 0-1-.4-1-1s.4-1 1-1h13.4c.6 0 1 .4 1 1s-.4 1-1 1z"/>
    <path d="M7.7 15.4c-.3 0-.5-.1-.7-.3-.4-.4-.4-1 0-1.4l6-6-6-6c-.4-.4-.4-1 0-1.4s1-.4 1.4 0L15.1 7c.4.4.4 1 0 1.4l-6.7 6.7c-.2.2-.4.3-.7.3z"/>
</symbol><symbol id="icon-arrow-up-right" viewBox="0 0 11 11">
    <path d="M1 11c-.3 0-.5-.1-.7-.3-.4-.4-.4-1 0-1.4l9-9c.4-.4 1-.4 1.4 0s.4 1 0 1.4l-9 9c-.2.2-.4.3-.7.3z"/>
    <path d="M10 9.4c-.6 0-1-.4-1-1V2H2.6c-.6 0-1-.4-1-1s.4-1 1-1H10c.6 0 1 .4 1 1v7.4c0 .6-.4 1-1 1z"/>
</symbol><symbol id="icon-arrow-up" viewBox="0 0 15.4 15.4">
    <style>
        .st0{fill:#0078ff}
    </style>
    <title>
        &#x420;&#x435;&#x441;&#x443;&#x440;&#x441; 8
    </title>
    <path d="M7.7 15.4c-.6 0-1-.4-1-1V1c0-.6.4-1 1-1s1 .4 1 1v13.4c0 .6-.4 1-1 1z"/>
    <path d="M14.4 8.7c-.3 0-.5-.1-.7-.3l-6-6-6 6c-.4.4-1 .4-1.4 0s-.4-1 0-1.4L7 .3c.4-.4 1-.4 1.4 0L15.1 7c.4.4.4 1 0 1.4-.2.2-.4.3-.7.3z"/>
</symbol><symbol id="icon-check-authors" viewBox="0 0 6.4 4.7">
    <path d="M2.3 4.7c-.2 0-.3 0-.5-.2L.2 2.8c-.2-.3-.2-.7 0-.9.3-.2.7-.2.9 0l1.2 1.2 3-3c.3-.3.7-.3.9 0s.3.7 0 .9L2.8 4.5c-.2.2-.3.2-.5.2z"/>
</symbol><symbol id="icon-check" viewBox="0 0 15 10.8">
    <path d="M5.2 10.8c-.3 0-.5-.1-.7-.3L.3 6.1c-.4-.4-.4-1 0-1.4.4-.4 1-.4 1.4 0l3.5 3.7 8-8c.4-.4 1-.4 1.4 0s.4 1 0 1.4l-8.8 8.8c0 .1-.3.2-.6.2z"/>
</symbol><symbol id="icon-chevron-down" viewBox="0 0 448 512">
    <path d="M207.029 381.476L12.686 187.132c-9.373-9.373-9.373-24.569 0-33.941l22.667-22.667c9.357-9.357 24.522-9.375 33.901-.04L224 284.505l154.745-154.021c9.379-9.335 24.544-9.317 33.901.04l22.667 22.667c9.373 9.373 9.373 24.569 0 33.941L240.971 381.476c-9.373 9.372-24.569 9.372-33.942 0z"/>
</symbol><symbol id="icon-chevron-left-1" viewBox="0 0 9.1 14.9">
    <path d="M7.6 14.9c.4 0 .8-.2 1.1-.5.6-.6.6-1.5 0-2.1l-5-4.9 5-4.9c.5-.5.6-1.5 0-2-.6-.6-1.5-.6-2.1 0L.5 6.4c-.3.2-.5.6-.5 1s.2.8.5 1.1l6.1 5.9c.2.3.6.5 1 .5z"/>
</symbol><symbol id="icon-chevron-left" viewBox="0 0 320 512">
    <path d="M34.52 239.03L228.87 44.69c9.37-9.37 24.57-9.37 33.94 0l22.67 22.67c9.36 9.36 9.37 24.52.04 33.9L131.49 256l154.02 154.75c9.34 9.38 9.32 24.54-.04 33.9l-22.67 22.67c-9.37 9.37-24.57 9.37-33.94 0L34.52 272.97c-9.37-9.37-9.37-24.57 0-33.94z"/>
</symbol><symbol id="icon-chevron-right-1" viewBox="0 0 9.1 14.9">
    <path d="M1.5 14.9c-.4 0-.8-.2-1.1-.5-.6-.6-.6-1.5 0-2.1l5-4.9-5-4.9C-.1 2-.2 1 .4.5 1-.1 2-.2 2.5.4l6.1 5.9c.3.3.5.7.5 1.1s-.2.8-.5 1.1l-6.1 5.9c-.2.3-.6.5-1 .5z"/>
</symbol><symbol id="icon-chevron-right" viewBox="0 0 320 512">
    <path d="M285.476 272.971L91.132 467.314c-9.373 9.373-24.569 9.373-33.941 0l-22.667-22.667c-9.357-9.357-9.375-24.522-.04-33.901L188.505 256 34.484 101.255c-9.335-9.379-9.317-24.544.04-33.901l22.667-22.667c9.373-9.373 24.569-9.373 33.941 0L285.475 239.03c9.373 9.372 9.373 24.568.001 33.941z"/>
</symbol><symbol id="icon-chevron-up" viewBox="0 0 13.9 8.1">
    <path d="M1 8.1c-.3 0-.5-.1-.7-.3-.4-.4-.4-1 0-1.4L6.2.3c.2-.2.5-.3.7-.3.3 0 .5.1.7.3l5.9 6.1c.4.4.4 1 0 1.4-.4.4-1 .4-1.4 0L6.9 2.4 1.7 7.8c-.2.2-.4.3-.7.3z"/>
</symbol><symbol id="icon-close" viewBox="0 0 12 12">
    <path d="M1 12c-.3 0-.5-.1-.7-.3-.4-.4-.4-1 0-1.4l10-10c.4-.4 1-.4 1.4 0s.4 1 0 1.4l-10 10c-.2.2-.4.3-.7.3z"/>
    <path d="M11 12c-.3 0-.5-.1-.7-.3l-10-10C-.1 1.3-.1.7.3.3s1-.4 1.4 0l10 10c.4.4.4 1 0 1.4-.2.2-.4.3-.7.3z"/>
</symbol><symbol id="icon-facebook" viewBox="0 0 10 19">
    <title>
        facebook
    </title>
    <path d="M9.766.157v2.946H8.014c-.64 0-1.071.134-1.295.402-.223.268-.335.67-.335 1.205v2.11h3.27l-.435 3.303H6.384v8.471H2.97v-8.47H.123V6.82H2.97V4.387c0-1.384.387-2.457 1.161-3.22C4.904.404 5.934.023 7.222.023c1.093 0 1.941.045 2.544.134z" fill-rule="evenodd"/>
</symbol><symbol id="icon-lock" viewBox="0 0 8.6 9">
    <path d="M8.1 3.7h-.8V3c0-1.7-1.3-3-3-3s-3 1.3-3 3v.7H.5c-.3 0-.5.2-.5.5v4.3c0 .3.2.5.5.5h7.6c.3 0 .5-.2.5-.5V4.2c0-.3-.2-.5-.5-.5zM4.3 7.4c-.6 0-1-.5-1-1 0-.6.5-1 1-1s1 .5 1 1-.4 1-1 1zm1.6-3.7H2.7V3c0-.9.7-1.6 1.6-1.6s1.6.7 1.6 1.6v.7z"/>
</symbol><symbol id="icon-map" viewBox="0 0 10 12.4">
    <path d="M10 5.1V5c0-2.8-2.2-5-5-5C2.4 0 .3 1.9.1 4.4v.1c-.1.2-.1.3-.1.5v.2c0 4.6 4.5 7.1 4.5 7.1.3.1.7.1.9 0 0 0 4.5-2.5 4.5-7.1.1 0 .1-.1.1-.1zM5 7.4c-1.2 0-2.2-1-2.2-2.2S3.8 3 5 3s2.2 1 2.2 2.2-1 2.2-2.2 2.2z"/>
</symbol><symbol id="icon-message-mobile" viewBox="0 0 20 20">
    <style>
        .st0{fill:#0078ff}.st1{fill:#fff}
    </style>
    <path class="st0" d="M10 0C4.5 0 0 4.5 0 10c0 2.5.9 4.8 2.5 6.6L1.1 20l5.6-.6c1 .4 2.1.6 3.3.6 5.5 0 10-4.5 10-10S15.5 0 10 0zM6.4 8.9c.6 0 1.1.5 1.1 1.1s-.5 1.1-1.1 1.1-1.1-.5-1.1-1.1.5-1.1 1.1-1.1zm3.6 0c.6 0 1.1.5 1.1 1.1s-.5 1.1-1.1 1.1-1.1-.5-1.1-1.1.5-1.1 1.1-1.1zm3.6 0c.6 0 1.1.5 1.1 1.1s-.5 1.1-1.1 1.1-1.1-.5-1.1-1.1.5-1.1 1.1-1.1z"/>
</symbol><symbol id="icon-messanger" viewBox="0 0 24 24.18">
    <title>
        &#x420;&#x435;&#x441;&#x443;&#x440;&#x441; 7
    </title>
    <path d="M12 0C5.37 0 0 5 0 11.2a10.91 10.91 0 0 0 4.42 8.68v4.3l4-2.29a12.53 12.53 0 0 0 3.55.5c6.63 0 12-5 12-11.19S18.63 0 12 0zm1.21 15l-3.07-3.23L4.25 15l6.47-6.85 3.1 3.17 5.83-3.17z"/>
</symbol><symbol id="icon-pinterest" viewBox="0 0 21 26.99">
    <path d="M12.25 19.58c-1.64-.13-2.33-.94-3.62-1.73-.71 3.72-1.57 7.28-4.14 9.15-.79-5.61 1.17-9.83 2.07-14.31C5 10.08 6.75 4.84 10 6.13c4 1.58-3.47 9.68 1.55 10.69C16.81 17.87 19 7.71 15.7 4.4 11-.37 2 4.29 3.11 11.13c.27 1.67 2 2.18.69 4.48-3-.67-3.91-3-3.79-6.21C.2 4.22 4.67.59 9.15.09c5.67-.63 11 2.08 11.73 7.42.82 6-2.56 12.54-8.63 12.07z"/>
</symbol><symbol id="icon-plus" viewBox="0 0 15 15">
    <path d="M7.5 15c-.6 0-1-.4-1-1V1c0-.6.4-1 1-1s1 .4 1 1v13c0 .6-.4 1-1 1z"/>
    <path d="M14 8.5H1c-.6 0-1-.4-1-1s.4-1 1-1h13c.6 0 1 .4 1 1s-.4 1-1 1z"/>
</symbol><symbol id="icon-search" viewBox="0 0 16.4 16">
    <path d="M6.9 13.8C3.1 13.8 0 10.7 0 6.9 0 3.1 3.1 0 6.9 0c3.8 0 6.9 3.1 6.9 6.9 0 3.8-3.1 6.9-6.9 6.9zM6.9 2C4.2 2 2 4.2 2 6.9s2.2 4.9 4.9 4.9 4.9-2.2 4.9-4.9S9.6 2 6.9 2z"/>
    <path d="M15.4 16c-.2 0-.5-.1-.7-.3l-4.2-4c-.4-.4-.4-1 0-1.4.4-.4 1-.4 1.4 0l4.2 4c.4.4.4 1 0 1.4-.2.2-.4.3-.7.3z"/>
</symbol><symbol id="icon-share" viewBox="0 0 17 13.7">
    <path d="M16.8 6.5L9.8.2C9.7 0 9.5 0 9.3 0c-.2.1-.3.3-.3.5v3.4c-1.7.2-7.5 1.2-9 7.8 0 .2 0 .4.2.5s.4.1.6 0C3.9 10.1 7.6 10 9 10v3.2c0 .2.1.4.3.5h.2c.1 0 .2 0 .3-.1l7-6.3c.1-.2.2-.3.2-.5 0-.1-.1-.2-.2-.3z"/>
</symbol><symbol id="icon-special" viewBox="0 0 11.5 16.9">
    <path d="M10.8 16.9c-.2 0-.4-.1-.5-.2l-4.5-4.2-4.5 4.2c-.2.2-.5.3-.8.1-.3-.1-.5-.4-.5-.7V2.4C0 1.1 1.1 0 2.4 0h6.7c1.3 0 2.4 1.1 2.4 2.4v13.7c0 .3-.2.6-.5.7 0 .1-.1.1-.2.1zm-5-6.2c.2 0 .4.1.5.2l3.7 3.5v-12c0-.5-.4-.9-.9-.9H2.4c-.5 0-.9.4-.9.9v12l3.7-3.5c.2-.2.4-.2.6-.2z"/>
</symbol><symbol id="icon-three-dots" viewBox="0 0 14.9 3.5">
    <path d="M1.8 0c1 0 1.8.8 1.8 1.8s-.8 1.8-1.8 1.8S0 2.8 0 1.8.8 0 1.8 0z"/>
    <path d="M7.4 0c1 0 1.8.8 1.8 1.8s-.8 1.8-1.8 1.8-1.8-.8-1.8-1.8S6.4 0 7.4 0z"/>
    <path d="M13.1 0c1 0 1.8.8 1.8 1.8s-.8 1.8-1.8 1.8-1.8-.8-1.8-1.8.8-1.8 1.8-1.8z"/>
</symbol><symbol id="icon-twitter" viewBox="0 0 20.92 17">
    <title>
        Twitter
    </title>
    <path d="M6.58 17A12.13 12.13 0 0 0 18.79 4.79v-.56A8.68 8.68 0 0 0 20.92 2a8.73 8.73 0 0 1-2.46.68A4.32 4.32 0 0 0 20.34.31a8.57 8.57 0 0 1-2.72 1 4.3 4.3 0 0 0-7.32 3.96A12.21 12.21 0 0 1 1.46.78a4.29 4.29 0 0 0 1.33 5.73A4.24 4.24 0 0 1 .84 6a4.3 4.3 0 0 0 3.44 4.21 4.24 4.24 0 0 1-1.94.07 4.29 4.29 0 0 0 4 3A8.51 8.51 0 0 1 1 15.13a8.72 8.72 0 0 1-1-.06A12.18 12.18 0 0 0 6.58 17"/>
</symbol><symbol id="icon-vk" viewBox="0 0 24.54 14">
    <path d="M12 13.94h1.46a1.24 1.24 0 0 0 .67-.29 1.08 1.08 0 0 0 .2-.65s0-2 .89-2.25 2.06 1.9 3.28 2.74a2.32 2.32 0 0 0 1.63.5l3.28-.05s1.71-.1.9-1.45a10.89 10.89 0 0 0-2.44-2.82c-2.05-1.91-1.77-1.6.7-4.9 1.51-2 2.11-3.24 1.92-3.76S23.21.64 23.21.64h-3.69a.86.86 0 0 0-.47.09 1.05 1.05 0 0 0-.33.39A20.82 20.82 0 0 1 17.36 4c-1.64 2.81-2.3 3-2.57 2.79-.62-.41-.47-1.63-.47-2.49 0-2.71.41-3.83-.8-4.13A6.56 6.56 0 0 0 11.8 0a8 8 0 0 0-3.06.32C8.32.52 8 1 8.19 1a1.65 1.65 0 0 1 1.09.54 3.58 3.58 0 0 1 .37 1.67s.21 3.19-.51 3.58C8.64 7.07 8 6.52 6.49 4a23.2 23.2 0 0 1-1.31-2.74 1.06 1.06 0 0 0-.31-.41 1.38 1.38 0 0 0-.56-.23L.8.64S.27.66.08.88s0 .63 0 .63 2.74 6.42 5.85 9.66A8.4 8.4 0 0 0 12 13.94"/>
</symbol></svg>