<svg xmlns="http://www.w3.org/2000/svg" width="19.6" height="20" viewBox="0 0 19.6 20">
  <defs>
    <style>
      .e7288661-8db8-4fa6-b2f4-220b24ad80c9 {
        fill: #4285f4;
      }

      .a7cf98d4-f6f7-4a5b-a5a5-18c50e7d948b {
        fill: #34a853;
      }

      .ea4424be-0684-4ce0-abfc-493efd1ab1f9 {
        fill: #fbbc05;
      }

      .\35 d6287a4-c980-4078-897b-305cecb2a3b8 {
        fill: #ea4335;
      }
    </style>
  </defs>
  <title>Ресурс 2</title>
  <g id="18ff9932-3219-4c40-b1b6-939b7e5fbab1" data-name="Слой 2">
    <g id="15d2af52-775f-44d8-a472-332d42650ef2" data-name="Слой 1">
      <g>
        <path class="e7288661-8db8-4fa6-b2f4-220b24ad80c9" d="M19.6,10.23a11.41,11.41,0,0,0-.18-2.05H10v3.87h5.38a4.59,4.59,0,0,1-2,3v2.51h3.23A9.76,9.76,0,0,0,19.6,10.23Z"/>
        <path class="a7cf98d4-f6f7-4a5b-a5a5-18c50e7d948b" d="M10,20a9.59,9.59,0,0,0,6.62-2.42l-3.23-2.51a6,6,0,0,1-9-3.17H1.06v2.59A10,10,0,0,0,10,20Z"/>
        <path class="ea4424be-0684-4ce0-abfc-493efd1ab1f9" d="M4.4,11.9a6,6,0,0,1,0-3.8V5.51H1.06a10,10,0,0,0,0,9Z"/>
        <path class="5d6287a4-c980-4078-897b-305cecb2a3b8" d="M10,4a5.38,5.38,0,0,1,3.82,1.49L16.69,2.6A9.61,9.61,0,0,0,10,0,10,10,0,0,0,1.06,5.51L4.4,8.1A6,6,0,0,1,10,4Z"/>
      </g>
    </g>
  </g>
</svg>
